<svg width="330" height="330" xmlns="http://www.w3.org/2000/svg" xmlns:xlink="http://www.w3.org/1999/xlink" xml:space="preserve" overflow="hidden"><defs><clipPath id="clip0"><rect x="704" y="1233" width="330" height="330"/></clipPath></defs><g clip-path="url(#clip0)" transform="translate(-704 -1233)"><path d="M288.75 106.593 199.375 106.593 199.375 82.5309C199.352 74.9464 193.21 68.8036 185.625 68.7809L41.25 68.7809C33.6655 68.8036 27.5227 74.9464 27.5 82.5309L27.5 175.371C27.5227 182.955 33.6655 189.098 41.25 189.121L61.875 189.121 61.875 223.496 96.25 189.121 130.625 189.121 130.625 213.183C130.648 220.768 136.79 226.911 144.375 226.933L233.75 226.933 268.125 261.308 268.125 226.933 288.75 226.933C296.335 226.911 302.477 220.768 302.5 213.183L302.5 120.347C302.479 112.761 296.336 106.616 288.75 106.593ZM130.625 120.343 130.625 182.249 93.4106 182.249 91.3962 184.264 68.75 206.91 68.75 182.249 41.25 182.249C37.4529 182.249 34.375 179.171 34.375 175.374L34.375 82.5344C34.375 78.7373 37.4529 75.6594 41.25 75.6594L185.625 75.6594C189.422 75.6594 192.5 78.7373 192.5 82.5344L192.5 106.597 144.375 106.597C136.79 106.62 130.648 112.762 130.625 120.347ZM295.625 213.183C295.625 216.98 292.547 220.058 288.75 220.058L261.25 220.058 261.25 244.719 238.624 222.062 236.61 220.048 144.375 220.048C140.578 220.048 137.5 216.97 137.5 213.173L137.5 120.347C137.5 116.55 140.578 113.472 144.375 113.472L288.75 113.472C292.547 113.472 295.625 116.55 295.625 120.347Z" transform="matrix(-1 0 0 1 1034 1233)"/><text font-family="Arial,Arial_MSFontService,sans-serif" font-weight="400" font-size="83" transform="matrix(1 0 0 1 794.279 1430)">?</text></g></svg>