<svg xmlns="http://www.w3.org/2000/svg" viewBox="0 0 50 50"><path d="M12,16h9a.5.5,0,0,0,0-1H12a.5.5,0,0,0,0,1Z" fill="#222"/><path d="M12,21h9a.5.5,0,0,0,0-1H12a.5.5,0,0,0,0,1Z" fill="#222"/><path d="M12,26h9a.5.5,0,0,0,0-1H12a.5.5,0,0,0,0,1Z" fill="#222"/><path d="M12,31h9a.5.5,0,0,0,0-1H12a.5.5,0,0,0,0,1Z" fill="#222"/><path d="M29,16h9a.5.5,0,0,0,0-1H29a.5.5,0,0,0,0,1Z" fill="#222"/><path d="M29,21h9a.5.5,0,0,0,0-1H29a.5.5,0,0,0,0,1Z" fill="#222"/><path d="M29,26h9a.5.5,0,0,0,0-1H29a.5.5,0,0,0,0,1Z" fill="#222"/><path d="M29,31h9a.5.5,0,0,0,0-1H29a.5.5,0,0,0,0,1Z" fill="#222"/><path d="M45,13H42.5V10.5A.5.5,0,0,0,42,10H29.636A5,5,0,0,0,25,12.629,5,5,0,0,0,20.364,10H8a.5.5,0,0,0-.5.5V13H5a.5.5,0,0,0-.5.5v26A.5.5,0,0,0,5,40H45a.5.5,0,0,0,.5-.5v-26A.5.5,0,0,0,45,13ZM29.636,11H41.5V34.985H29.636A5.277,5.277,0,0,0,25.5,36.71V14.729A3.818,3.818,0,0,1,29.636,11ZM8.5,11H20.364A3.818,3.818,0,0,1,24.5,14.729V36.71a5.277,5.277,0,0,0-4.136-1.725H8.5Zm-3,3h2V35.485a.5.5,0,0,0,.5.5H20.364c1.911,0,3.817.948,4.083,3.015H5.5Zm39,25H25.553c.266-2.067,2.172-3.015,4.083-3.015H42a.5.5,0,0,0,.5-.5V14h2Z" fill="#222"/></svg>