<svg id="b8f7f43a-f8c9-466a-8670-fb8d89d9fd3c" data-name="Icons" xmlns="http://www.w3.org/2000/svg" viewBox="0 0 50 50"><path d="M15.643,29.939a3.449,3.449,0,1,0,3.449,3.449A3.453,3.453,0,0,0,15.643,29.939Zm0,5.9a2.449,2.449,0,1,1,2.449-2.449A2.452,2.452,0,0,1,15.643,35.837Z"/><path d="M38.965,14.221,40.2,13a2.92,2.92,0,0,0,.429-3.72,2.876,2.876,0,0,0-2.105-1.237,2.836,2.836,0,0,0-2.281.823h0L19.567,25.529A8.757,8.757,0,0,0,7.879,29.545a8.748,8.748,0,0,0,10.2,12.3,8.756,8.756,0,0,0,5.529-12.268l4.641-4.636,3.223,3.232a2.859,2.859,0,0,0,4.085-4,.614.614,0,0,0-.042-.047L32.291,20.9l2.629-2.631L38.154,21.5a2.86,2.86,0,0,0,4.037-4.05Zm2.513,6.512a1.86,1.86,0,0,1-2.623.052L35.274,17.2a.514.514,0,0,0-.707,0L31.23,20.542a.5.5,0,0,0,0,.707l3.543,3.539a.534.534,0,0,0,.039.044,1.859,1.859,0,0,1-2.628,2.63l-3.576-3.586a.5.5,0,0,0-.353-.147h0a.5.5,0,0,0-.353.146l-5.254,5.248a.5.5,0,0,0-.086.591A7.756,7.756,0,0,1,11.789,40.079,7.879,7.879,0,0,1,8.776,29.987a7.7,7.7,0,0,1,4.6-3.971,7.789,7.789,0,0,1,2.371-.373,7.7,7.7,0,0,1,3.674.938.5.5,0,0,0,.592-.087L36.944,9.569a1.88,1.88,0,0,1,1.484-.536,1.852,1.852,0,0,1,1.373.811,1.946,1.946,0,0,1-.312,2.443l-1.584,1.579a.5.5,0,0,0,0,.707l3.574,3.577A1.851,1.851,0,0,1,41.478,20.733Z"/></svg>